# xmcd
#
# Track frame offsets:
#	150
#	12633
#	22527
#	30990
#	40336
#	51187
#	61860
#	72594
#	82133
#	92541
#	102048
#	115238
#	126771
#	137134
#	148388
#	159140
#	168910
#	180800
#	190743
#	200377
#	210730
#	223166
#	233499
#	244719
#	255037
#	264229
#	274758
#	284020
#	291531
#	300902
#	310337
#
# Disc length: 4299 seconds
#
# Revision: 1
# Processed by: cddbd v1.5.2PL0 Copyright (c) Steve Scherf et al.
# Submitted via: audiograbber 1.83.01
#
DISCID=b010c91f
DTITLE=Various Artist - MGM Rockabilly   Disc 1   PINK 'N' BLACK
DYEAR=1900
DGENRE=Rockabilly
TTITLE0=Andy Starr - Rockin' Rollin' Stone        MGM 12263   1956
TTITLE1=Andy Starr - I Want-A Go South       MGM 12263   1956
TTITLE2=Andy Starr - She's A Going Jessie      MGM 12315   1956
TTITLE3=Andy Starr - Old Deacon Jones      MGM 12315   1956
TTITLE4=Marvin Rainwater - Mr Blues     MGM 12240   1956
TTITLE5=Cecil Campbell - Rock And Roll Fever       MGM 12482   1957
TTITLE6=Andy Starr - Give Me A Woman      MGM 12364   1956
TTITLE7=Andy Starr - Round And Round      MGM 12364   1956
TTITLE8=Andy Starr - No Room For Your Kind      MGM 12421   1957
TTITLE9=Andy Starr - One More Time      MGM 12421   1957
TTITLE10=Buck Griffin - Stutterin' Papa      MGM 12284   1956
TTITLE11=Buck Griffin - Watchin' The 7-10 Roll By      MGM 12284   1956
TTITLE12=Buck Griffin - Bow My Back     MGM 12439   1957
TTITLE13=Marvin Rainwater - My Brand Of Blues      MGM 12511   1957
TTITLE14=Cecil Campbell - Dixieland Rock      MGM 12245   1956
TTITLE15=Bob Gallion - My Square Dancin' Mama      MGM 12195   1956
TTITLE16=Carson Robinson - Rockin' And Rollin' With Grandma      MGM 12266   19
TTITLE16=56
TTITLE17=Buck Griffin - Old Bee Tree      MGM 12439   1957
TTITLE18=Buck Griffin - You'll Never Come Back      MGM 12597   1957
TTITLE19=Buck Griffin - Jessie Lee      MGM 12597   1957
TTITLE20=Conway Twitty - Long Black Train      MGM LP 3943   1961 and MGM 14271  
TTITLE20=1971
TTITLE21=Marvin Rainwater - Gamblin' Man        MGM 12653   1958
TTITLE22=Ron Hargrave - Drive In Movie      Cub 9025   1959
TTITLE23=Bob Gallion - Baby Love Me      MGM 12628   1958
TTITLE24=Marvin Rainwater - Hot 'n' Cold       MGM 12240   1956
TTITLE25=Jimmy Swan - Country Cattin'      MGM 12348   1956
TTITLE26=Bernie Early - Rock Doll       MGM 12640   1958
TTITLE27=Marvin Rainwater - I Dig You Baby      MGM 12665   1958
TTITLE28=Gary Williams - Travelin' Blues Boy       Verve 10083   1957
TTITLE29=Bob Riley - Midnight Line       MGM 12612   1958
TTITLE30=Billy Jack Wills - Theres Good Rockin      MGM 11966   1955
EXTD=
EXTT0=
EXTT1=
EXTT2=
EXTT3=
EXTT4=
EXTT5=
EXTT6=
EXTT7=
EXTT8=
EXTT9=
EXTT10=
EXTT11=
EXTT12=
EXTT13=
EXTT14=
EXTT15=
EXTT16=
EXTT17=
EXTT18=
EXTT19=
EXTT20=
EXTT21=
EXTT22=
EXTT23=
EXTT24=
EXTT25=
EXTT26=
EXTT27=
EXTT28=
EXTT29=
EXTT30=
PLAYORDER=
